<mxfile host="Electron" modified="2024-01-20T08:52:53.941Z" agent="Mozilla/5.0 (X11; Linux x86_64) AppleWebKit/537.36 (KHTML, like Gecko) draw.io/22.1.2 Chrome/114.0.5735.289 Electron/25.9.4 Safari/537.36" etag="8A3cjHuGREq64A4HRc-H" version="22.1.2" type="device">
  <diagram name="Page-1" id="mm8L9rrPvuCEs-1IeTHS">
    <mxGraphModel dx="1295" dy="626" grid="0" gridSize="10" guides="1" tooltips="1" connect="1" arrows="1" fold="1" page="1" pageScale="1" pageWidth="850" pageHeight="1100" math="0" shadow="0">
      <root>
        <mxCell id="0" />
        <mxCell id="1" parent="0" />
        <mxCell id="hgL5LavRRJisteActZvu-9" style="edgeStyle=orthogonalEdgeStyle;rounded=0;orthogonalLoop=1;jettySize=auto;html=1;exitX=0;exitY=1;exitDx=0;exitDy=0;" edge="1" parent="1" source="hgL5LavRRJisteActZvu-1" target="hgL5LavRRJisteActZvu-8">
          <mxGeometry relative="1" as="geometry" />
        </mxCell>
        <mxCell id="hgL5LavRRJisteActZvu-10" style="edgeStyle=orthogonalEdgeStyle;rounded=0;orthogonalLoop=1;jettySize=auto;html=1;exitX=0.5;exitY=1;exitDx=0;exitDy=0;entryX=0.5;entryY=0;entryDx=0;entryDy=0;" edge="1" parent="1" source="hgL5LavRRJisteActZvu-1" target="hgL5LavRRJisteActZvu-7">
          <mxGeometry relative="1" as="geometry" />
        </mxCell>
        <mxCell id="hgL5LavRRJisteActZvu-11" style="edgeStyle=orthogonalEdgeStyle;rounded=0;orthogonalLoop=1;jettySize=auto;html=1;exitX=1;exitY=1;exitDx=0;exitDy=0;" edge="1" parent="1" source="hgL5LavRRJisteActZvu-1" target="hgL5LavRRJisteActZvu-6">
          <mxGeometry relative="1" as="geometry" />
        </mxCell>
        <mxCell id="hgL5LavRRJisteActZvu-1" value="&lt;font style=&quot;font-size: 15px;&quot;&gt;libre-gamedev&lt;/font&gt;" style="ellipse;whiteSpace=wrap;html=1;" vertex="1" parent="1">
          <mxGeometry x="327" y="144" width="120" height="80" as="geometry" />
        </mxCell>
        <mxCell id="hgL5LavRRJisteActZvu-15" value="" style="edgeStyle=orthogonalEdgeStyle;rounded=0;orthogonalLoop=1;jettySize=auto;html=1;" edge="1" parent="1" source="hgL5LavRRJisteActZvu-6" target="hgL5LavRRJisteActZvu-14">
          <mxGeometry relative="1" as="geometry" />
        </mxCell>
        <mxCell id="hgL5LavRRJisteActZvu-6" value="&lt;font style=&quot;font-size: 15px;&quot;&gt;Lua&lt;/font&gt;" style="ellipse;whiteSpace=wrap;html=1;" vertex="1" parent="1">
          <mxGeometry x="471" y="253" width="120" height="80" as="geometry" />
        </mxCell>
        <mxCell id="hgL5LavRRJisteActZvu-13" value="" style="edgeStyle=orthogonalEdgeStyle;rounded=0;orthogonalLoop=1;jettySize=auto;html=1;" edge="1" parent="1" source="hgL5LavRRJisteActZvu-7" target="hgL5LavRRJisteActZvu-12">
          <mxGeometry relative="1" as="geometry" />
        </mxCell>
        <mxCell id="hgL5LavRRJisteActZvu-7" value="&lt;font style=&quot;font-size: 15px;&quot;&gt;Python&lt;/font&gt;" style="ellipse;whiteSpace=wrap;html=1;" vertex="1" parent="1">
          <mxGeometry x="327" y="255" width="120" height="80" as="geometry" />
        </mxCell>
        <mxCell id="hgL5LavRRJisteActZvu-17" value="" style="edgeStyle=orthogonalEdgeStyle;rounded=0;orthogonalLoop=1;jettySize=auto;html=1;" edge="1" parent="1" source="hgL5LavRRJisteActZvu-8" target="hgL5LavRRJisteActZvu-16">
          <mxGeometry relative="1" as="geometry" />
        </mxCell>
        <mxCell id="hgL5LavRRJisteActZvu-8" value="&lt;font style=&quot;font-size: 15px;&quot;&gt;C/C++&lt;/font&gt;" style="ellipse;whiteSpace=wrap;html=1;" vertex="1" parent="1">
          <mxGeometry x="183" y="255" width="120" height="80" as="geometry" />
        </mxCell>
        <mxCell id="hgL5LavRRJisteActZvu-12" value="&lt;font style=&quot;font-size: 15px;&quot;&gt;Pygame&lt;/font&gt;" style="ellipse;whiteSpace=wrap;html=1;" vertex="1" parent="1">
          <mxGeometry x="327" y="370" width="120" height="80" as="geometry" />
        </mxCell>
        <mxCell id="hgL5LavRRJisteActZvu-21" style="edgeStyle=orthogonalEdgeStyle;rounded=0;orthogonalLoop=1;jettySize=auto;html=1;exitX=0.5;exitY=1;exitDx=0;exitDy=0;entryX=1;entryY=0;entryDx=0;entryDy=0;" edge="1" parent="1" source="hgL5LavRRJisteActZvu-14" target="hgL5LavRRJisteActZvu-18">
          <mxGeometry relative="1" as="geometry" />
        </mxCell>
        <mxCell id="hgL5LavRRJisteActZvu-14" value="&lt;span style=&quot;font-size: 15px;&quot;&gt;Love&lt;/span&gt;" style="ellipse;whiteSpace=wrap;html=1;" vertex="1" parent="1">
          <mxGeometry x="471" y="370" width="120" height="80" as="geometry" />
        </mxCell>
        <mxCell id="hgL5LavRRJisteActZvu-19" style="edgeStyle=orthogonalEdgeStyle;rounded=0;orthogonalLoop=1;jettySize=auto;html=1;exitX=0.5;exitY=1;exitDx=0;exitDy=0;entryX=0;entryY=0;entryDx=0;entryDy=0;" edge="1" parent="1" source="hgL5LavRRJisteActZvu-16" target="hgL5LavRRJisteActZvu-18">
          <mxGeometry relative="1" as="geometry" />
        </mxCell>
        <mxCell id="hgL5LavRRJisteActZvu-16" value="&lt;font style=&quot;font-size: 15px;&quot;&gt;GDot&lt;/font&gt;" style="ellipse;whiteSpace=wrap;html=1;" vertex="1" parent="1">
          <mxGeometry x="183" y="370" width="120" height="80" as="geometry" />
        </mxCell>
        <mxCell id="hgL5LavRRJisteActZvu-18" value="no proprietary tools" style="ellipse;whiteSpace=wrap;html=1;" vertex="1" parent="1">
          <mxGeometry x="334" y="507" width="120" height="80" as="geometry" />
        </mxCell>
        <mxCell id="hgL5LavRRJisteActZvu-20" style="edgeStyle=orthogonalEdgeStyle;rounded=0;orthogonalLoop=1;jettySize=auto;html=1;exitX=0.5;exitY=1;exitDx=0;exitDy=0;entryX=0.45;entryY=0.025;entryDx=0;entryDy=0;entryPerimeter=0;" edge="1" parent="1" source="hgL5LavRRJisteActZvu-12" target="hgL5LavRRJisteActZvu-18">
          <mxGeometry relative="1" as="geometry" />
        </mxCell>
      </root>
    </mxGraphModel>
  </diagram>
</mxfile>
